<svg xmlns="http://www.w3.org/2000/svg" viewBox="0 0 100 100">
  <defs>
    <linearGradient id="g" x1="0" y1="0" x2="1" y2="1">
      <stop offset="0%" stop-color="#7c3aed"/>
      <stop offset="50%" stop-color="#a855f7"/>
      <stop offset="100%" stop-color="#ec4899"/>
    </linearGradient>
  </defs>
  <rect width="100" height="100" rx="24" fill="url(#g)"/>
  <path d="M55 25l3.5 10.8a2 2 0 002.4 1.4l11.3-2.9-7 9.1a2 2 0 00.4 2.7l8.7 7.5-11.4.6a2 2 0 00-1.9 1.5L58.5 67l-4.1-10.7a2 2 0 00-2.5-1.2l-11 3.8 6.4-9.6a2 2 0 00-.2-2.7L38 39.9l11.5.4a2 2 0 001.8-1.3L55 25z" fill="white"/>
</svg>
